<?xml version="1.0" encoding="utf-8"?>
<!-- Generator: Adobe Illustrator 21.1.0, SVG Export Plug-In . SVG Version: 6.00 Build 0)  -->
<svg version="1.1" id="Layer_1" xmlns="http://www.w3.org/2000/svg" xmlns:xlink="http://www.w3.org/1999/xlink" x="0px" y="0px"
	 viewBox="0 0 180.6 209" style="enable-background:new 0 0 180.6 209;" xml:space="preserve">
<style type="text/css">
	.st0{fill:none;stroke:#BFBDBD;stroke-width:5;stroke-linecap:round;stroke-miterlimit:10;}
	.st1{fill:#F7E60E;}
	.st2{fill:#9A8E33;}
	.st3{fill:#171716;}
	.st4{fill:#231F20;}
	.st5{font-family:'MyriadPro-Regular';}
	.st6{font-size:16.621px;}
	.st7{font-size:8.0159px;}
	.st8{font-size:11.0807px;}
	.st9{fill:none;stroke:#000000;stroke-width:5;stroke-linecap:round;stroke-miterlimit:10;}
</style>
<g id="video">
	<path class="st0" d="M1399.1,3445.3c6.9,12.8,10.9,27.4,10.9,43c0,49.9-40.4,90.3-90.3,90.3s-90.3-40.4-90.3-90.3
		s40.4-90.3,90.3-90.3c24.7,0,47,9.9,63.3,25.9"/>
	<path class="st0" d="M1387.9,3429.2c1.7,2,3.3,4,4.9,6.2"/>
	<g>
		<path class="st1" d="M1375.7,3465.3l-19.8,6.3c-0.1-8.7-5.5-14.2-12.3-14.2h-52.4c-6.8,0-12.3,5.5-12.3,12.3v38.2
			c0,6.8,5.5,12.3,12.3,12.3h52.4c6.8,0,12.3-5.5,12.3-12.3v-2.8l19.7,7.2c0.8,2.4,1.7,1.8,1.7,0.9v-48.8
			C1377.4,3463.6,1376.6,3463,1375.7,3465.3z"/>
		<path class="st2" d="M1311.1,3495l-22.7-8.6c-12.1-4.6-18.1-18.1-13.6-30.1l0,0c4.6-12.1,18.1-18.1,30.1-13.6l22.7,8.6
			c12.1,4.6,18.1,18.1,13.6,30.1l0,0C1336.7,3493.6,1323.2,3499.6,1311.1,3495z"/>
		<circle class="st1" cx="1296.7" cy="3464.6" r="18.8"/>
		<polygon class="st3" points="1271.7,3476.6 1271.7,3471 1265.7,3471 1265.7,3497 1271.7,3497 1271.7,3494.3 1278.9,3497.3 
			1278.9,3480.3 		"/>
	</g>
	<path class="st2" d="M1313.7,3512.7h-24.4c-0.8,0-1.5-0.7-1.5-1.5v-7.9c0-0.8,0.7-1.5,1.5-1.5h24.4c0.8,0,1.5,0.7,1.5,1.5v7.9
		C1315.2,3512,1314.5,3512.7,1313.7,3512.7z"/>
	<text transform="matrix(1 0 0 1 1371.5525 3390.4241)" class="st4 st5" style="font-size:18px;">+</text>
	<text transform="matrix(1 0 0 1 1415.7749 3430)" class="st4 st5" style="font-size:12px;">+</text>
	<text transform="matrix(1 0 0 1 1359 3437.5696)" class="st4 st5" style="font-size:12px;">+</text>
	<polygon class="st3" points="1356,3471.7 1375.7,3465.3 1375.7,3512.4 1356,3505.2 	"/>
</g>
<path class="st0" d="M446.7,3812.3c6.9,12.8,10.9,27.4,10.9,43c0,49.9-40.4,90.3-90.3,90.3s-90.3-40.4-90.3-90.3
	s40.4-90.3,90.3-90.3c24.7,0,47,9.9,63.3,25.9"/>
<path class="st0" d="M161.8,63c6.4,11.8,10,25.3,10,39.7c0,46-37.3,83.4-83.4,83.4S5.1,148.7,5.1,102.7s37.3-83.4,83.4-83.4
	c22.8,0,43.4,9.1,58.5,23.9"/>
<path class="st0" d="M151.5,48.1c1.6,1.8,3.1,3.7,4.5,5.7"/>
<text transform="matrix(1 0 0 1 143.5596 69.1348)" class="st4 st5 st6">+</text>
<text transform="matrix(1 0 0 1 122.332 89.894)" class="st4 st5 st7">+</text>
<text transform="matrix(1 0 0 1 151.4668 35.7476)" class="st4 st5 st8">+</text>
<text transform="matrix(1 0 0 1 171.4941 48.124)" class="st4 st5 st8">+</text>
<path class="st2" d="M64.4,99.2l24.3-15.5c0,0-16.8-14.7-17.1-14.6C71.2,69.2,47,85.6,47,85.6L64.4,99.2z"/>
<polygon class="st2" points="47,112.3 64.4,99.2 88.5,114 71.7,128.3 "/>
<polygon class="st2" points="113,99.2 88.5,114 105.8,128.3 130.1,112.4 "/>
<polygon class="st2" points="88.7,83.7 105.8,69.1 130.1,85.5 113,99.2 "/>
<path class="st1" d="M64.2,126.4l7.5,4.9l17-14.5l16.9,14.5c0,0,7.2-5.5,7.1-5.1c-0.1,0.3,0,5.8,0,5.8l-23.4,14.6l-25.2-14.9V126.4z
	"/>
<line class="st9" x1="88.4" y1="67.9" x2="88.4" y2="101.1"/>
<polyline class="st9" points="75.7,96.9 88.4,105.5 100.9,96.9 "/>
</svg>
