<?xml version="1.0" encoding="utf-8"?>
<!-- Generator: Adobe Illustrator 21.1.0, SVG Export Plug-In . SVG Version: 6.00 Build 0)  -->
<svg version="1.1" id="Layer_1" xmlns="http://www.w3.org/2000/svg" xmlns:xlink="http://www.w3.org/1999/xlink" x="0px" y="0px"
	 viewBox="0 0 758 1594" style="enable-background:new 0 0 758 1594;" xml:space="preserve">
<style type="text/css">
	.st0{fill:#050505;}
	.st1{clip-path:url(#SVGID_2_);fill:#050505;stroke:#F6E402;stroke-width:4;stroke-miterlimit:10;}
	.st2{clip-path:url(#SVGID_4_);fill:#050505;stroke:#F6E402;stroke-width:4;stroke-miterlimit:10;}
	.st3{clip-path:url(#SVGID_6_);fill:#050505;stroke:#F6E402;stroke-width:4;stroke-miterlimit:10;}
	.st4{clip-path:url(#SVGID_8_);fill:#050505;stroke:#F6E402;stroke-width:4;stroke-miterlimit:10;}
	.st5{clip-path:url(#SVGID_10_);fill:#050505;stroke:#F6E402;stroke-width:4;stroke-miterlimit:10;}
	.st6{clip-path:url(#SVGID_12_);fill:#050505;stroke:#F6E402;stroke-width:4;stroke-miterlimit:10;}
	.st7{clip-path:url(#SVGID_14_);fill:#050505;stroke:#F6E402;stroke-width:4;stroke-miterlimit:10;}
	.st8{clip-path:url(#SVGID_16_);fill:#050505;stroke:#F6E402;stroke-width:4;stroke-miterlimit:10;}
	.st9{clip-path:url(#SVGID_18_);fill:#050505;stroke:#F6E402;stroke-width:4;stroke-miterlimit:10;}
	.st10{clip-path:url(#SVGID_20_);enable-background:new    ;}
	.st11{clip-path:url(#SVGID_22_);}
	.st12{clip-path:url(#SVGID_24_);}
	.st13{clip-path:url(#SVGID_26_);fill:#050505;stroke:#F6E402;stroke-width:4;stroke-miterlimit:10;}
</style>
<path class="st0" d="M8.1,1053v326.6h-2v102c0,62.2,50.4,112.6,112.6,112.6h526.8c62.2,0,112.6-50.4,112.6-112.6V1403v-23.4V1053
	H8.1z"/>
<g>
	<g>
		<defs>
			<path id="SVGID_1_" d="M116.1,6.2c-60.8,0-110,49.2-110,110v1368c0,60.7,49.3,110,110,110h532c60.8,0,110-49.2,110-110v-1368
				c0-60.7-49.3-110-110-110H116.1z"/>
		</defs>
		<use xlink:href="#SVGID_1_"  style="overflow:visible;fill-rule:evenodd;clip-rule:evenodd;fill:#050505;"/>
		<clipPath id="SVGID_2_">
			<use xlink:href="#SVGID_1_"  style="overflow:visible;"/>
		</clipPath>
		<path class="st1" d="M116.1,6.2c-60.8,0-110,49.2-110,110v1368c0,60.7,49.3,110,110,110h532c60.8,0,110-49.2,110-110v-1368
			c0-60.7-49.3-110-110-110H116.1z"/>
	</g>
	<g>
		<defs>
			<path id="SVGID_3_" d="M4.1,228.2c-2.2,0-4,1.8-4,4v58c0,2.2,1.8,4,4,4h4v-66H4.1z"/>
		</defs>
		<use xlink:href="#SVGID_3_"  style="overflow:visible;fill-rule:evenodd;clip-rule:evenodd;fill:#050505;"/>
		<clipPath id="SVGID_4_">
			<use xlink:href="#SVGID_3_"  style="overflow:visible;"/>
		</clipPath>
		<path class="st2" d="M4.1,228.2c-2.2,0-4,1.8-4,4v58c0,2.2,1.8,4,4,4h4v-66H4.1z"/>
	</g>
	<g>
		<defs>
			<path id="SVGID_5_" d="M4.1,376.2c-2.2,0-4,1.8-4,4v46c0,2.2,1.8,4,4,4h4v-54H4.1z"/>
		</defs>
		<use xlink:href="#SVGID_5_"  style="overflow:visible;fill-rule:evenodd;clip-rule:evenodd;fill:#050505;"/>
		<clipPath id="SVGID_6_">
			<use xlink:href="#SVGID_5_"  style="overflow:visible;"/>
		</clipPath>
		<path class="st3" d="M4.1,376.2c-2.2,0-4,1.8-4,4v46c0,2.2,1.8,4,4,4h4v-54H4.1z"/>
	</g>
	<g>
		<defs>
			<path id="SVGID_7_" d="M4.1,508.2c-2.2,0-4,1.8-4,4v46c0,2.2,1.8,4,4,4h4v-54H4.1z"/>
		</defs>
		<use xlink:href="#SVGID_7_"  style="overflow:visible;fill-rule:evenodd;clip-rule:evenodd;fill:#050505;"/>
		<clipPath id="SVGID_8_">
			<use xlink:href="#SVGID_7_"  style="overflow:visible;"/>
		</clipPath>
		<path class="st4" d="M4.1,508.2c-2.2,0-4,1.8-4,4v46c0,2.2,1.8,4,4,4h4v-54H4.1z"/>
	</g>
	<g>
		<defs>
			<circle id="SVGID_9_" cx="381.1" cy="84.2" r="14"/>
		</defs>
		<use xlink:href="#SVGID_9_"  style="overflow:visible;fill-rule:evenodd;clip-rule:evenodd;fill:#050505;"/>
		<clipPath id="SVGID_10_">
			<use xlink:href="#SVGID_9_"  style="overflow:visible;"/>
		</clipPath>
		<circle class="st5" cx="381.1" cy="84.2" r="14"/>
	</g>
	<g>
		<defs>
			<path id="SVGID_11_" d="M329.1,128.2c-8.8,0-16,7.2-16,16c0,8.8,7.2,16,16,16h106c8.8,0,16-7.2,16-16c0-8.8-7.2-16-16-16H329.1z"
				/>
		</defs>
		<use xlink:href="#SVGID_11_"  style="overflow:visible;fill-rule:evenodd;clip-rule:evenodd;fill:#050505;"/>
		<clipPath id="SVGID_12_">
			<use xlink:href="#SVGID_11_"  style="overflow:visible;"/>
		</clipPath>
		<path class="st6" d="M329.1,128.2c-8.8,0-16,7.2-16,16c0,8.8,7.2,16,16,16h106c8.8,0,16-7.2,16-16c0-8.8-7.2-16-16-16H329.1z"/>
	</g>
	<g>
		<defs>
			<circle id="SVGID_13_" cx="382.1" cy="1479.2" r="68"/>
		</defs>
		<use xlink:href="#SVGID_13_"  style="overflow:visible;fill-rule:evenodd;clip-rule:evenodd;fill:#050505;"/>
		<clipPath id="SVGID_14_">
			<use xlink:href="#SVGID_13_"  style="overflow:visible;"/>
		</clipPath>
		<circle class="st7" cx="382.1" cy="1479.2" r="68"/>
	</g>
	<g>
		<defs>
			<path id="SVGID_15_" d="M515.6,0.2c-1.9,0-3.5,1.6-3.5,3.5v4.5h122V3.7c0-1.9-1.6-3.5-3.5-3.5H515.6z"/>
		</defs>
		<use xlink:href="#SVGID_15_"  style="overflow:visible;fill-rule:evenodd;clip-rule:evenodd;fill:#050505;"/>
		<clipPath id="SVGID_16_">
			<use xlink:href="#SVGID_15_"  style="overflow:visible;"/>
		</clipPath>
		<path class="st8" d="M515.6,0.2c-1.9,0-3.5,1.6-3.5,3.5v4.5h122V3.7c0-1.9-1.6-3.5-3.5-3.5H515.6z"/>
	</g>
	<g>
		<defs>
			<path id="SVGID_17_" d="M62.1,232.2v1136h640v-1136H62.1z M50.1,220.2h664v1160h-664V220.2z"/>
		</defs>
		<use xlink:href="#SVGID_17_"  style="overflow:visible;fill-rule:evenodd;clip-rule:evenodd;fill:#050505;"/>
		<clipPath id="SVGID_18_">
			<use xlink:href="#SVGID_17_"  style="overflow:visible;"/>
		</clipPath>
		<rect x="62.1" y="232.2" class="st9" width="640" height="1136"/>
	</g>
	<g>
		<defs>
			<rect id="SVGID_19_" x="62.1" y="232.2" width="640" height="1136"/>
		</defs>
		<use xlink:href="#SVGID_19_"  style="overflow:visible;fill-rule:evenodd;clip-rule:evenodd;fill:#050505;"/>
		<clipPath id="SVGID_20_">
			<use xlink:href="#SVGID_19_"  style="overflow:visible;"/>
		</clipPath>
		<g class="st10">
			<g>
				<defs>
					<rect id="SVGID_21_" x="50.1" y="220.2" width="664" height="1160"/>
				</defs>
				<use xlink:href="#SVGID_21_"  style="overflow:visible;fill:#050505;"/>
				<clipPath id="SVGID_22_">
					<use xlink:href="#SVGID_21_"  style="overflow:visible;"/>
				</clipPath>
				<g class="st11">
					<defs>
						<path id="SVGID_23_" d="M62.1,232.2v1136h640v-1136H62.1z M50.1,220.2h664v1160h-664V220.2z"/>
					</defs>
					<use xlink:href="#SVGID_23_"  style="overflow:visible;fill-rule:evenodd;clip-rule:evenodd;fill:#050505;"/>
					<clipPath id="SVGID_24_">
						<use xlink:href="#SVGID_23_"  style="overflow:visible;"/>
					</clipPath>
					<g class="st12">
						<defs>
							<rect id="SVGID_25_" x="62.1" y="232.2" width="640" height="1136"/>
						</defs>
						<use xlink:href="#SVGID_25_"  style="overflow:visible;fill:#050505;"/>
						<clipPath id="SVGID_26_">
							<use xlink:href="#SVGID_25_"  style="overflow:visible;"/>
						</clipPath>
						<rect x="62.1" y="232.2" class="st13" width="640" height="1136"/>
					</g>
				</g>
			</g>
		</g>
	</g>
</g>
</svg>
