<?xml version="1.0" encoding="utf-8"?>
<!-- Generator: Adobe Illustrator 21.1.0, SVG Export Plug-In . SVG Version: 6.00 Build 0)  -->
<svg version="1.1" id="Layer_1" xmlns="http://www.w3.org/2000/svg" xmlns:xlink="http://www.w3.org/1999/xlink" x="0px" y="0px"
	 viewBox="0 0 180.6 209" style="enable-background:new 0 0 180.6 209;" xml:space="preserve">
<style type="text/css">
	.st0{fill:none;stroke:#BFBDBD;stroke-width:5;stroke-linecap:round;stroke-miterlimit:10;}
	.st1{fill:#F7E60E;}
	.st2{fill:#9A8E33;}
	.st3{fill:#171716;}
	.st4{fill:#231F20;}
	.st5{font-family:'MyriadPro-Regular';}
	.st6{font-size:16.4687px;}
	.st7{font-size:10.9791px;}
	.st8{fill:none;stroke:#000000;stroke-width:5;stroke-miterlimit:10;}
	.st9{fill:none;stroke:#9A8E33;stroke-width:5;stroke-miterlimit:10;}
</style>
<g id="video">
	<path class="st0" d="M1399.1,3445.3c6.9,12.8,10.9,27.4,10.9,43c0,49.9-40.4,90.3-90.3,90.3s-90.3-40.4-90.3-90.3
		s40.4-90.3,90.3-90.3c24.7,0,47,9.9,63.3,25.9"/>
	<path class="st0" d="M1387.9,3429.2c1.7,2,3.3,4,4.9,6.2"/>
	<g>
		<path class="st1" d="M1375.7,3465.3l-19.8,6.3c-0.1-8.7-5.5-14.2-12.3-14.2h-52.4c-6.8,0-12.3,5.5-12.3,12.3v38.2
			c0,6.8,5.5,12.3,12.3,12.3h52.4c6.8,0,12.3-5.5,12.3-12.3v-2.8l19.7,7.2c0.8,2.4,1.7,1.8,1.7,0.9v-48.8
			C1377.4,3463.6,1376.6,3463,1375.7,3465.3z"/>
		<path class="st2" d="M1311.1,3495l-22.7-8.6c-12.1-4.6-18.1-18.1-13.6-30.1l0,0c4.6-12.1,18.1-18.1,30.1-13.6l22.7,8.6
			c12.1,4.6,18.1,18.1,13.6,30.1l0,0C1336.7,3493.6,1323.2,3499.6,1311.1,3495z"/>
		<circle class="st1" cx="1296.7" cy="3464.6" r="18.8"/>
		<polygon class="st3" points="1271.7,3476.6 1271.7,3471 1265.7,3471 1265.7,3497 1271.7,3497 1271.7,3494.3 1278.9,3497.3 
			1278.9,3480.3 		"/>
	</g>
	<path class="st2" d="M1313.7,3512.7h-24.4c-0.8,0-1.5-0.7-1.5-1.5v-7.9c0-0.8,0.7-1.5,1.5-1.5h24.4c0.8,0,1.5,0.7,1.5,1.5v7.9
		C1315.2,3512,1314.5,3512.7,1313.7,3512.7z"/>
	<text transform="matrix(1 0 0 1 1371.5525 3390.4241)" class="st4 st5" style="font-size:18px;">+</text>
	<text transform="matrix(1 0 0 1 1415.7749 3430)" class="st4 st5" style="font-size:12px;">+</text>
	<text transform="matrix(1 0 0 1 1359 3437.5696)" class="st4 st5" style="font-size:12px;">+</text>
	<polygon class="st3" points="1356,3471.7 1375.7,3465.3 1375.7,3512.4 1356,3505.2 	"/>
</g>
<path class="st0" d="M446.7,3812.3c6.9,12.8,10.9,27.4,10.9,43c0,49.9-40.4,90.3-90.3,90.3s-90.3-40.4-90.3-90.3
	s40.4-90.3,90.3-90.3c24.7,0,47,9.9,63.3,25.9"/>
<path class="st0" d="M159.5,67.9c6.3,11.7,9.9,25.1,9.9,39.3c0,45.6-37,82.6-82.6,82.6s-82.6-37-82.6-82.6s37-82.6,82.6-82.6
	c22.6,0,43,9,57.9,23.7"/>
<path class="st0" d="M149.3,53.1c1.6,1.8,3.1,3.7,4.5,5.6"/>
<text transform="matrix(1 0 0 1 169.4297 39.9492)" class="st4 st5 st6">+</text>
<text transform="matrix(1 0 0 1 134.1543 23.0923)" class="st4 st5 st7">+</text>
<text transform="matrix(1 0 0 1 134.1543 63.019)" class="st4 st5 st7">+</text>
<g>
	<line class="st8" x1="106.7" y1="83.5" x2="129.5" y2="118"/>
	<path class="st9" d="M68.1,135.7l3.2,5.3c3.8,6.3,12,8.3,18.3,4.5l0,0c6.1-3.7,8.3-11.6,4.8-17.9L76.2,95.8
		c-4.2-7.6-1.7-17.2,5.8-21.7l0,0c7.6-4.6,17.5-2.2,22.2,5.3l2.7,4"/>
	<line class="st8" x1="43.9" y1="96" x2="68.1" y2="135.7"/>
	<polygon class="st1" points="32.8,116.4 71,140.2 67.2,94.1 56.4,115.6 	"/>
	<polygon class="st2" points="71,140.2 56.4,115.6 32.8,116.4 	"/>
	<path class="st1" d="M107.3,51.3c-7.1,0-12.9,5.8-12.9,12.9c0,7.1,12.9,22.1,12.9,22.1s12.9-14.9,12.9-22.1
		C120.2,57.1,114.4,51.3,107.3,51.3z M111,69.4c-2.2,2.2-5.8,2.2-8.1,0c-2.2-2.2-2.2-5.8,0-8.1c2.2-2.2,5.8-2.2,8.1,0
		C113.3,63.6,113.3,67.2,111,69.4z"/>
</g>
</svg>
