<?xml version="1.0" encoding="utf-8"?>
<!-- Generator: Adobe Illustrator 21.1.0, SVG Export Plug-In . SVG Version: 6.00 Build 0)  -->
<svg version="1.1" id="Layer_1" xmlns="http://www.w3.org/2000/svg" xmlns:xlink="http://www.w3.org/1999/xlink" x="0px" y="0px"
	 viewBox="0 0 180.6 209" style="enable-background:new 0 0 180.6 209;" xml:space="preserve">
<style type="text/css">
	.st0{fill:#F7E60E;}
	.st1{fill:#9A8E33;}
	.st2{fill:#171716;}
	.st3{fill:none;stroke:#BFBDBD;stroke-width:5;stroke-linecap:round;stroke-miterlimit:10;}
	.st4{fill:#231F20;}
	.st5{font-family:'MyriadPro-Regular';}
	.st6{font-size:17.0948px;}
	.st7{font-size:11.3965px;}
</style>
<g id="photo">
	<g>
		<path class="st0" d="M126.5,81.6H105l-3.9-3.4H74.3l-3.9,3.4H57.7V80h-6.2v1.7c-6.6,0.6-11.8,6.1-11.8,12.9v41.1
			c0,7.1,5.8,12.9,12.9,12.9h73.9c7.1,0,12.9-5.8,12.9-12.9V94.5C139.4,87.4,133.7,81.6,126.5,81.6z"/>
		<circle class="st1" cx="89.6" cy="115.1" r="21.6"/>
		<circle class="st2" cx="89.6" cy="115.1" r="10.7"/>
		<circle class="st1" cx="89.6" cy="115.1" r="3.8"/>
		<path class="st2" d="M128.6,94.4h-5.7c-0.9,0-1.6-0.7-1.6-1.6v-2.2c0-0.9,0.7-1.6,1.6-1.6h5.7c0.9,0,1.6,0.7,1.6,1.6v2.2
			C130.2,93.7,129.5,94.4,128.6,94.4z"/>
		<rect x="51.5" y="80" class="st1" width="6.2" height="1.6"/>
	</g>
	<path class="st3" d="M165,74.3c6.6,12.1,10.3,26,10.3,40.8c0,47.4-38.4,85.7-85.7,85.7S3.8,162.4,3.8,115.1s38.4-85.7,85.7-85.7
		c23.4,0,44.7,9.4,60.1,24.6"/>
	<path class="st3" d="M154.4,58.9c1.6,1.9,3.2,3.8,4.6,5.8"/>
	<text transform="matrix(1 0 0 1 159.0479 43.9717)" class="st4 st5 st6">+</text>
	<text transform="matrix(1 0 0 1 139.4414 12.229)" class="st4 st5 st7">+</text>
	<text transform="matrix(1 0 0 1 110.2139 59.7144)" class="st4 st5 st7">+</text>
</g>
</svg>
