<?xml version="1.0" encoding="utf-8"?>
<!-- Generator: Adobe Illustrator 21.1.0, SVG Export Plug-In . SVG Version: 6.00 Build 0)  -->
<svg version="1.1" id="Layer_1" xmlns="http://www.w3.org/2000/svg" xmlns:xlink="http://www.w3.org/1999/xlink" x="0px" y="0px"
	 viewBox="0 0 180.6 209" style="enable-background:new 0 0 180.6 209;" xml:space="preserve">
<style type="text/css">
	.st0{fill:none;stroke:#BFBDBD;stroke-width:5;stroke-linecap:round;stroke-miterlimit:10;}
	.st1{fill:#F7E60E;}
	.st2{fill:#9A8E33;}
	.st3{fill:#171716;}
	.st4{fill:none;stroke:#7FC469;stroke-width:5;stroke-miterlimit:10;}
	.st5{fill:#282827;}
	.st6{opacity:0.1;fill:#9A8E33;}
	.st7{fill:#231F20;}
	.st8{font-family:'MyriadPro-Regular';}
	.st9{font-size:16.3818px;}
	.st10{font-size:10.9212px;}
</style>
<g id="video">
	<path class="st0" d="M1399.1,3445.3c6.9,12.8,10.9,27.4,10.9,43c0,49.9-40.4,90.3-90.3,90.3s-90.3-40.4-90.3-90.3
		s40.4-90.3,90.3-90.3c24.7,0,47,9.9,63.3,25.9"/>
	<path class="st0" d="M1387.9,3429.2c1.7,2,3.3,4,4.9,6.2"/>
	<g>
		<path class="st1" d="M1375.7,3465.3l-19.8,6.3c-0.1-8.7-5.5-14.2-12.3-14.2h-52.4c-6.8,0-12.3,5.5-12.3,12.3v38.2
			c0,6.8,5.5,12.3,12.3,12.3h52.4c6.8,0,12.3-5.5,12.3-12.3v-2.8l19.7,7.2c0.8,2.4,1.7,1.8,1.7,0.9v-48.8
			C1377.4,3463.6,1376.6,3463,1375.7,3465.3z"/>
		<path class="st2" d="M1311.1,3495l-22.7-8.6c-12.1-4.6-18.1-18.1-13.6-30.1l0,0c4.6-12.1,18.1-18.1,30.1-13.6l22.7,8.6
			c12.1,4.6,18.1,18.1,13.6,30.1l0,0C1336.7,3493.6,1323.2,3499.6,1311.1,3495z"/>
		<circle class="st1" cx="1296.7" cy="3464.6" r="18.8"/>
		<polygon class="st3" points="1271.7,3476.6 1271.7,3471 1265.7,3471 1265.7,3497 1271.7,3497 1271.7,3494.3 1278.9,3497.3 
			1278.9,3480.3 		"/>
	</g>
	<path class="st2" d="M1313.7,3512.7h-24.4c-0.8,0-1.5-0.7-1.5-1.5v-7.9c0-0.8,0.7-1.5,1.5-1.5h24.4c0.8,0,1.5,0.7,1.5,1.5v7.9
		C1315.2,3512,1314.5,3512.7,1313.7,3512.7z"/>
	<text transform="matrix(1 0 0 1 1371.5525 3390.4241)" class="st7 st8" style="font-size:18px;">+</text>
	<text transform="matrix(1 0 0 1 1415.7749 3430)" class="st7 st8" style="font-size:12px;">+</text>
	<text transform="matrix(1 0 0 1 1359 3437.5696)" class="st7 st8" style="font-size:12px;">+</text>
	<polygon class="st3" points="1356,3471.7 1375.7,3465.3 1375.7,3512.4 1356,3505.2 	"/>
</g>
<path class="st0" d="M446.7,3812.3c6.9,12.8,10.9,27.4,10.9,43c0,49.9-40.4,90.3-90.3,90.3s-90.3-40.4-90.3-90.3
	s40.4-90.3,90.3-90.3c24.7,0,47,9.9,63.3,25.9"/>
<g id="scan">
	<path class="st1" d="M115.9,144.9H59.1c-1.4,0-2.6-1.2-2.6-2.6V72c0-1.4,1.2-2.6,2.6-2.6h56.9c1.4,0,2.6,1.2,2.6,2.6v70.3
		C118.6,143.8,117.4,144.9,115.9,144.9z"/>
	<polyline class="st4" points="48.6,67.6 48.6,59.7 56.7,59.7 	"/>
	<polyline class="st4" points="56.7,156.8 48.6,156.8 48.6,148.7 	"/>
	<polyline class="st4" points="124.1,148.7 124.1,156.8 116.5,156.8 	"/>
	<polyline class="st4" points="116.5,59.7 124.1,59.7 124.1,67.6 	"/>
	<path class="st2" d="M112.3,90.7H89.5c-0.8,0-1.5-0.7-1.5-1.5v-10c0-0.8,0.7-1.5,1.5-1.5h22.8c0.8,0,1.5,0.7,1.5,1.5v10
		C113.8,90,113.1,90.7,112.3,90.7z"/>
	<path class="st2" d="M77.7,90.7H64.5c-0.8,0-1.5-0.7-1.5-1.5v-10c0-0.8,0.7-1.5,1.5-1.5h13.2c0.8,0,1.5,0.7,1.5,1.5v10
		C79.2,90,78.5,90.7,77.7,90.7z"/>
	<path class="st5" d="M111.8,134.4H97.1c-0.5,0-0.9-0.4-0.9-0.9v-4.4c0-0.5,0.4-0.9,0.9-0.9h14.6c0.5,0,0.9,0.4,0.9,0.9v4.4
		C112.6,134,112.2,134.4,111.8,134.4z"/>
	<path class="st6" d="M65.8,96.3H111c1.5,0,2.7,1.2,2.7,2.7v7.9c0,1.5-1.2,2.7-2.7,2.7H90.2c-1.5,0-2.7,1.2-2.7,2.7v3.4
		c0,1.5,1.2,2.7,2.7,2.7H104c1.5,0,2.7,1.2,2.7,2.7v0c0,1.5-1.2,2.7-2.7,2.7H89.4c-1.5,0-2.7,1.2-2.7,2.7v5c0,1.5-1.2,2.7-2.7,2.7
		H66.7c-1.5,0-2.7-1.2-2.7-2.7v-4.3c0-1.5,1.2-2.7,2.7-2.7h4.1c1.5,0,2.7-1.2,2.7-2.7v-7.3c0-1.5-1.2-2.7-2.7-2.7h-5
		c-1.5,0-2.7-1.2-2.7-2.7V99C63,97.5,64.3,96.3,65.8,96.3z"/>
	<path class="st0" d="M158.9,67.5c6.3,11.6,9.9,25,9.9,39.1c0,45.4-36.8,82.2-82.2,82.2S4.5,152,4.5,106.6s36.8-82.2,82.2-82.2
		c22.4,0,42.8,9,57.6,23.6"/>
	<path class="st0" d="M148.7,52.9c1.6,1.8,3,3.7,4.4,5.6"/>
	<text transform="matrix(1 0 0 1 146.0176 25.3945)" class="st7 st8 st9">+</text>
	<text transform="matrix(1 0 0 1 171.5303 46.4966)" class="st7 st8 st10">+</text>
	<text transform="matrix(1 0 0 1 137.3193 67.5771)" class="st7 st8 st10">+</text>
</g>
</svg>
