<?xml version="1.0" encoding="utf-8"?>
<!-- Generator: Adobe Illustrator 21.1.0, SVG Export Plug-In . SVG Version: 6.00 Build 0)  -->
<svg version="1.1" id="Layer_1" xmlns="http://www.w3.org/2000/svg" xmlns:xlink="http://www.w3.org/1999/xlink" x="0px" y="0px"
	 viewBox="0 0 180.6 209" style="enable-background:new 0 0 180.6 209;" xml:space="preserve">
<style type="text/css">
	.st0{fill:none;stroke:#BFBDBD;stroke-width:5;stroke-linecap:round;stroke-miterlimit:10;}
	.st1{fill:#F7E60E;}
	.st2{fill:#9A8E33;}
	.st3{fill:#171716;}
	.st4{fill:#231F20;}
	.st5{font-family:'MyriadPro-Regular';}
	.st6{font-size:16.3934px;}
	.st7{font-size:10.929px;}
	.st8{fill:none;stroke:#231F20;stroke-width:2;stroke-miterlimit:10;}
	.st9{fill:none;stroke:#000000;stroke-width:5;stroke-linecap:round;stroke-miterlimit:10;}
</style>
<g id="video">
	<path class="st0" d="M1399.1,3445.3c6.9,12.8,10.9,27.4,10.9,43c0,49.9-40.4,90.3-90.3,90.3s-90.3-40.4-90.3-90.3
		s40.4-90.3,90.3-90.3c24.7,0,47,9.9,63.3,25.9"/>
	<path class="st0" d="M1387.9,3429.2c1.7,2,3.3,4,4.9,6.2"/>
	<g>
		<path class="st1" d="M1375.7,3465.3l-19.8,6.3c-0.1-8.7-5.5-14.2-12.3-14.2h-52.4c-6.8,0-12.3,5.5-12.3,12.3v38.2
			c0,6.8,5.5,12.3,12.3,12.3h52.4c6.8,0,12.3-5.5,12.3-12.3v-2.8l19.7,7.2c0.8,2.4,1.7,1.8,1.7,0.9v-48.8
			C1377.4,3463.6,1376.6,3463,1375.7,3465.3z"/>
		<path class="st2" d="M1311.1,3495l-22.7-8.6c-12.1-4.6-18.1-18.1-13.6-30.1l0,0c4.6-12.1,18.1-18.1,30.1-13.6l22.7,8.6
			c12.1,4.6,18.1,18.1,13.6,30.1l0,0C1336.7,3493.6,1323.2,3499.6,1311.1,3495z"/>
		<circle class="st1" cx="1296.7" cy="3464.6" r="18.8"/>
		<polygon class="st3" points="1271.7,3476.6 1271.7,3471 1265.7,3471 1265.7,3497 1271.7,3497 1271.7,3494.3 1278.9,3497.3 
			1278.9,3480.3 		"/>
	</g>
	<path class="st2" d="M1313.7,3512.7h-24.4c-0.8,0-1.5-0.7-1.5-1.5v-7.9c0-0.8,0.7-1.5,1.5-1.5h24.4c0.8,0,1.5,0.7,1.5,1.5v7.9
		C1315.2,3512,1314.5,3512.7,1313.7,3512.7z"/>
	<text transform="matrix(1 0 0 1 1371.5525 3390.4241)" class="st4 st5" style="font-size:18px;">+</text>
	<text transform="matrix(1 0 0 1 1415.7749 3430)" class="st4 st5" style="font-size:12px;">+</text>
	<text transform="matrix(1 0 0 1 1359 3437.5696)" class="st4 st5" style="font-size:12px;">+</text>
	<polygon class="st3" points="1356,3471.7 1375.7,3465.3 1375.7,3512.4 1356,3505.2 	"/>
</g>
<path class="st0" d="M446.7,3812.3c6.9,12.8,10.9,27.4,10.9,43c0,49.9-40.4,90.3-90.3,90.3s-90.3-40.4-90.3-90.3
	s40.4-90.3,90.3-90.3c24.7,0,47,9.9,63.3,25.9"/>
<path class="st0" d="M159.1,68c6.3,11.6,9.9,25,9.9,39.1c0,45.4-36.8,82.2-82.2,82.2S4.5,152.6,4.5,107.2s36.8-82.2,82.2-82.2
	c22.5,0,42.8,9,57.7,23.6"/>
<path class="st0" d="M148.9,53.3c1.6,1.8,3,3.7,4.4,5.6"/>
<text transform="matrix(1 0 0 1 168.9756 40.2314)" class="st4 st5 st6">+</text>
<text transform="matrix(1 0 0 1 133.8623 23.4512)" class="st4 st5 st7">+</text>
<text transform="matrix(1 0 0 1 133.8623 63.1963)" class="st4 st5 st7">+</text>
<g>
	<path class="st1" d="M106.3,133.4H40.4c-2.5,0-4.5-2-4.5-4.5v-55c0-2.5,2-4.5,4.5-4.5h65.8c2.5,0,4.5,2,4.5,4.5v55
		C110.7,131.4,108.7,133.4,106.3,133.4z"/>
	<path class="st2" d="M110.7,81.5H36v-7.6c0-2.5,2-4.5,4.5-4.5h65.8c2.5,0,4.5,2,4.5,4.5V81.5z"/>
	<rect x="42.7" y="93.4" class="st2" width="13.4" height="12"/>
	<rect x="59.4" y="109.1" class="st2" width="13.4" height="12"/>
	<polyline class="st8" points="47.5,98.4 50.9,101.8 59.4,93.4 	"/>
	<polyline class="st8" points="64.9,114.2 68.3,117.6 76.9,109.1 	"/>
	<circle class="st2" cx="110.7" cy="117.2" r="33.6"/>
	<circle class="st1" cx="110.7" cy="117.2" r="26.7"/>
	<polyline class="st9" points="110.7,103.5 110.7,117.2 120.8,123.6 	"/>
</g>
</svg>
