<?xml version="1.0" encoding="utf-8"?>
<!-- Generator: Adobe Illustrator 21.1.0, SVG Export Plug-In . SVG Version: 6.00 Build 0)  -->
<svg version="1.1" id="Layer_1" xmlns="http://www.w3.org/2000/svg" xmlns:xlink="http://www.w3.org/1999/xlink" x="0px" y="0px"
	 viewBox="0 0 180.6 209" style="enable-background:new 0 0 180.6 209;" xml:space="preserve">
<style type="text/css">
	.st0{fill:none;stroke:#BFBDBD;stroke-width:5;stroke-linecap:round;stroke-miterlimit:10;}
	.st1{fill:#F7E60E;}
	.st2{fill:#9A8E33;}
	.st3{fill:#171716;}
	.st4{fill:#231F20;}
	.st5{font-family:'MyriadPro-Regular';}
	.st6{font-size:16.4908px;}
	.st7{font-size:10.9939px;}
	.st8{fill:none;stroke:#000000;stroke-width:5;stroke-linecap:round;stroke-miterlimit:10;}
	.st9{fill:#C6C5C5;}
	.st10{fill:#E5E5E4;}
</style>
<g id="video">
	<path class="st0" d="M1399.1,3445.3c6.9,12.8,10.9,27.4,10.9,43c0,49.9-40.4,90.3-90.3,90.3s-90.3-40.4-90.3-90.3
		s40.4-90.3,90.3-90.3c24.7,0,47,9.9,63.3,25.9"/>
	<path class="st0" d="M1387.9,3429.2c1.7,2,3.3,4,4.9,6.2"/>
	<g>
		<path class="st1" d="M1375.7,3465.3l-19.8,6.3c-0.1-8.7-5.5-14.2-12.3-14.2h-52.4c-6.8,0-12.3,5.5-12.3,12.3v38.2
			c0,6.8,5.5,12.3,12.3,12.3h52.4c6.8,0,12.3-5.5,12.3-12.3v-2.8l19.7,7.2c0.8,2.4,1.7,1.8,1.7,0.9v-48.8
			C1377.4,3463.6,1376.6,3463,1375.7,3465.3z"/>
		<path class="st2" d="M1311.1,3495l-22.7-8.6c-12.1-4.6-18.1-18.1-13.6-30.1l0,0c4.6-12.1,18.1-18.1,30.1-13.6l22.7,8.6
			c12.1,4.6,18.1,18.1,13.6,30.1l0,0C1336.7,3493.6,1323.2,3499.6,1311.1,3495z"/>
		<circle class="st1" cx="1296.7" cy="3464.6" r="18.8"/>
		<polygon class="st3" points="1271.7,3476.6 1271.7,3471 1265.7,3471 1265.7,3497 1271.7,3497 1271.7,3494.3 1278.9,3497.3 
			1278.9,3480.3 		"/>
	</g>
	<path class="st2" d="M1313.7,3512.7h-24.4c-0.8,0-1.5-0.7-1.5-1.5v-7.9c0-0.8,0.7-1.5,1.5-1.5h24.4c0.8,0,1.5,0.7,1.5,1.5v7.9
		C1315.2,3512,1314.5,3512.7,1313.7,3512.7z"/>
	<text transform="matrix(1 0 0 1 1371.5525 3390.4241)" class="st4 st5" style="font-size:18px;">+</text>
	<text transform="matrix(1 0 0 1 1415.7749 3430)" class="st4 st5" style="font-size:12px;">+</text>
	<text transform="matrix(1 0 0 1 1359 3437.5696)" class="st4 st5" style="font-size:12px;">+</text>
	<polygon class="st3" points="1356,3471.7 1375.7,3465.3 1375.7,3512.4 1356,3505.2 	"/>
</g>
<path class="st0" d="M446.7,3812.3c6.9,12.8,10.9,27.4,10.9,43c0,49.9-40.4,90.3-90.3,90.3s-90.3-40.4-90.3-90.3
	s40.4-90.3,90.3-90.3c24.7,0,47,9.9,63.3,25.9"/>
<path class="st0" d="M159.5,67.4c6.3,11.7,10,25.1,10,39.4c0,45.7-37,82.7-82.7,82.7S4,152.5,4,106.8s37-82.7,82.7-82.7
	c22.6,0,43.1,9.1,58,23.7"/>
<path class="st0" d="M149.3,52.7c1.6,1.8,3.1,3.7,4.5,5.6"/>
<text transform="matrix(1 0 0 1 169.4355 39.4561)" class="st4 st5 st6">+</text>
<text transform="matrix(1 0 0 1 134.1133 22.5767)" class="st4 st5 st7">+</text>
<text transform="matrix(1 0 0 1 134.1133 62.5586)" class="st4 st5 st7">+</text>
<g>
	<rect x="44.4" y="77.7" class="st1" width="84.7" height="65.5"/>
	<path class="st8" d="M82,77.7H48.6c-2.3,0-4.2,1.9-4.2,4.2V139c0,2.3,1.9,4.2,4.2,4.2h76.2c2.3,0,4.2-1.9,4.2-4.2V81.9
		c0-2.3-1.9-4.2-4.2-4.2H97.4v33.9H66.8"/>
	<circle cx="66.8" cy="112" r="3.5"/>
	<circle cx="114.6" cy="111.7" r="3.5"/>
	<circle cx="97.8" cy="111.7" r="3.5"/>
	<circle cx="88.6" cy="123.5" r="3.5"/>
	<line class="st8" x1="88.4" y1="143.2" x2="88.4" y2="124"/>
	<line class="st8" x1="129.1" y1="111.3" x2="114.6" y2="111.3"/>
	<path class="st9" d="M117.3,65.5l-12.8-9.9c0,0-11.8,12.2-30.4,18.1c0,0-2.6,21-6.6,35.6c-0.9,0.1-1.6,0.8-1.6,1.8
		c0,0.4,0.1,0.8,0.4,1.1l2.2-2.7c0,0,0,0-0.1,0c5.9-7.3,17.5-22.8,20.3-25.9c-0.3-0.5-0.5-1-0.5-1.6c0-1.8,1.4-3.2,3.2-3.2
		c1.8,0,3.2,1.4,3.2,3.2s-1.4,3.2-3.2,3.2c-0.5,0-0.9-0.1-1.3-0.3l-20.9,25.2c0,0,0,0,0,0l-2.2,2.7c0.2,0.1,0.5,0.2,0.8,0.2
		c1,0,1.8-0.8,1.8-1.8c0,0,0-0.1,0-0.1c7-2.9,19.1-9,34.3-12.6C103.9,98.5,106.5,85.9,117.3,65.5z"/>
	<path class="st10" d="M68.5,109.5C68.5,109.5,68.5,109.5,68.5,109.5c5.9-7.3,17.5-22.8,20.2-25.9c-0.3-0.5-0.5-1-0.5-1.6
		c0-1.8,1.4-3.2,3.2-3.2c0.8,0,1.5,0.3,2.1,0.8l16.2-19.9l-5.2-4c0,0-11.8,12.2-30.4,18.1c0,0-2.6,21-6.6,35.6
		c-0.9,0.1-1.6,0.8-1.6,1.8c0,0.4,0.1,0.8,0.4,1.1L68.5,109.5z"/>
	<polygon class="st2" points="99.7,58.8 115.2,71.3 122.7,64.1 104.6,50.4 	"/>
</g>
</svg>
