<?xml version="1.0" encoding="utf-8"?>
<!-- Generator: Adobe Illustrator 21.1.0, SVG Export Plug-In . SVG Version: 6.00 Build 0)  -->
<svg version="1.1" id="Layer_1" xmlns="http://www.w3.org/2000/svg" xmlns:xlink="http://www.w3.org/1999/xlink" x="0px" y="0px"
	 viewBox="0 0 180.6 209" style="enable-background:new 0 0 180.6 209;" xml:space="preserve">
<style type="text/css">
	.st0{fill:none;stroke:#BFBDBD;stroke-width:5;stroke-linecap:round;stroke-miterlimit:10;}
	.st1{fill:#F7E60E;}
	.st2{fill:#9A8E33;}
	.st3{fill:#171716;}
	.st4{fill:#231F20;}
	.st5{font-family:'MyriadPro-Regular';}
	.st6{font-size:16.3083px;}
	.st7{font-size:10.8722px;}
</style>
<g id="photo">
	<path class="st0" d="M93.4,182.7"/>
</g>
<g id="video">
	<path class="st0" d="M1399.1,3445.3c6.9,12.8,10.9,27.4,10.9,43c0,49.9-40.4,90.3-90.3,90.3s-90.3-40.4-90.3-90.3
		s40.4-90.3,90.3-90.3c24.7,0,47,9.9,63.3,25.9"/>
	<path class="st0" d="M1387.9,3429.2c1.7,2,3.3,4,4.9,6.2"/>
	<g>
		<path class="st1" d="M1375.7,3465.3l-19.8,6.3c-0.1-8.7-5.5-14.2-12.3-14.2h-52.4c-6.8,0-12.3,5.5-12.3,12.3v38.2
			c0,6.8,5.5,12.3,12.3,12.3h52.4c6.8,0,12.3-5.5,12.3-12.3v-2.8l19.7,7.2c0.8,2.4,1.7,1.8,1.7,0.9v-48.8
			C1377.4,3463.6,1376.6,3463,1375.7,3465.3z"/>
		<path class="st2" d="M1311.1,3495l-22.7-8.6c-12.1-4.6-18.1-18.1-13.6-30.1l0,0c4.6-12.1,18.1-18.1,30.1-13.6l22.7,8.6
			c12.1,4.6,18.1,18.1,13.6,30.1l0,0C1336.7,3493.6,1323.2,3499.6,1311.1,3495z"/>
		<circle class="st1" cx="1296.7" cy="3464.6" r="18.8"/>
		<polygon class="st3" points="1271.7,3476.6 1271.7,3471 1265.7,3471 1265.7,3497 1271.7,3497 1271.7,3494.3 1278.9,3497.3 
			1278.9,3480.3 		"/>
	</g>
	<path class="st2" d="M1313.7,3512.7h-24.4c-0.8,0-1.5-0.7-1.5-1.5v-7.9c0-0.8,0.7-1.5,1.5-1.5h24.4c0.8,0,1.5,0.7,1.5,1.5v7.9
		C1315.2,3512,1314.5,3512.7,1313.7,3512.7z"/>
	<text transform="matrix(1 0 0 1 1371.5525 3390.4241)" class="st4 st5" style="font-size:18px;">+</text>
	<text transform="matrix(1 0 0 1 1415.7749 3430)" class="st4 st5" style="font-size:12px;">+</text>
	<text transform="matrix(1 0 0 1 1359 3437.5696)" class="st4 st5" style="font-size:12px;">+</text>
	<polygon class="st3" points="1356,3471.7 1375.7,3465.3 1375.7,3512.4 1356,3505.2 	"/>
</g>
<g id="video_1_">
	<path class="st0" d="M157.2,66.3c6.3,11.6,9.8,24.8,9.8,38.9c0,45.2-36.6,81.8-81.8,81.8S3.5,150.4,3.5,105.2s36.6-81.8,81.8-81.8
		c22.3,0,42.6,9,57.4,23.5"/>
	<path class="st0" d="M147.1,51.7c1.6,1.8,3,3.7,4.4,5.6"/>
	<g>
		<path class="st1" d="M136.1,84.4l-17.9,5.8c0-7.9-5-12.9-11.1-12.9H59.6c-6.2,0-11.1,5-11.1,11.1V123c0,6.2,5,11.1,11.1,11.1H107
			c6.2,0,11.1-5,11.1-11.1v-2.5l17.8,6.5c0.7,2.1,1.6,1.6,1.6,0.8V83.6C137.6,82.9,136.8,82.3,136.1,84.4z"/>
		<path class="st2" d="M77.6,111.3L57,103.5c-10.9-4.1-16.4-16.4-12.3-27.3l0,0C48.9,65.3,61.1,59.8,72,64l20.6,7.8
			c10.9,4.1,16.4,16.4,12.3,27.3l0,0C100.7,110,88.5,115.5,77.6,111.3z"/>
		<circle class="st1" cx="64.5" cy="83.7" r="17"/>
		<polygon class="st3" points="41.8,94.6 41.8,89.6 36.4,89.6 36.4,113.1 41.8,113.1 41.8,110.7 48.3,113.3 48.3,98 		"/>
	</g>
	<path class="st2" d="M79.7,127.3H57.9c-0.8,0-1.5-0.7-1.5-1.5v-6.9c0-0.8,0.7-1.5,1.5-1.5h21.8c0.8,0,1.5,0.7,1.5,1.5v6.9
		C81.3,126.6,80.6,127.3,79.7,127.3z"/>
	<text transform="matrix(1 0 0 1 132.2871 16.5566)" class="st4 st5 st6">+</text>
	<text transform="matrix(1 0 0 1 172.3535 52.4131)" class="st4 st5 st7">+</text>
	<text transform="matrix(1 0 0 1 120.9141 59.2715)" class="st4 st5 st7">+</text>
	<polygon class="st3" points="118.2,90.2 136.1,84.4 136,127.1 118.2,120.5 	"/>
</g>
</svg>
