<?xml version="1.0" encoding="utf-8"?>
<!-- Generator: Adobe Illustrator 21.1.0, SVG Export Plug-In . SVG Version: 6.00 Build 0)  -->
<svg version="1.1" id="Layer_1" xmlns="http://www.w3.org/2000/svg" xmlns:xlink="http://www.w3.org/1999/xlink" x="0px" y="0px"
	 viewBox="0 0 180.6 209" style="enable-background:new 0 0 180.6 209;" xml:space="preserve">
<style type="text/css">
	.st0{fill:none;stroke:#BFBDBD;stroke-width:5;stroke-linecap:round;stroke-miterlimit:10;}
	.st1{fill:#F7E60E;}
	.st2{fill:#9A8E33;}
	.st3{fill:#171716;}
	.st4{fill:#231F20;}
	.st5{font-family:'MyriadPro-Regular';}
	.st6{font-size:16.1532px;}
	.st7{font-size:10.7688px;}
	.st8{fill:none;stroke:#000000;stroke-width:5;stroke-miterlimit:10;}
	.st9{fill:none;stroke:#000000;stroke-width:5;stroke-linecap:round;stroke-miterlimit:10;}
</style>
<g id="video">
	<path class="st0" d="M1399.1,3445.3c6.9,12.8,10.9,27.4,10.9,43c0,49.9-40.4,90.3-90.3,90.3s-90.3-40.4-90.3-90.3
		s40.4-90.3,90.3-90.3c24.7,0,47,9.9,63.3,25.9"/>
	<path class="st0" d="M1387.9,3429.2c1.7,2,3.3,4,4.9,6.2"/>
	<g>
		<path class="st1" d="M1375.7,3465.3l-19.8,6.3c-0.1-8.7-5.5-14.2-12.3-14.2h-52.4c-6.8,0-12.3,5.5-12.3,12.3v38.2
			c0,6.8,5.5,12.3,12.3,12.3h52.4c6.8,0,12.3-5.5,12.3-12.3v-2.8l19.7,7.2c0.8,2.4,1.7,1.8,1.7,0.9v-48.8
			C1377.4,3463.6,1376.6,3463,1375.7,3465.3z"/>
		<path class="st2" d="M1311.1,3495l-22.7-8.6c-12.1-4.6-18.1-18.1-13.6-30.1l0,0c4.6-12.1,18.1-18.1,30.1-13.6l22.7,8.6
			c12.1,4.6,18.1,18.1,13.6,30.1l0,0C1336.7,3493.6,1323.2,3499.6,1311.1,3495z"/>
		<circle class="st1" cx="1296.7" cy="3464.6" r="18.8"/>
		<polygon class="st3" points="1271.7,3476.6 1271.7,3471 1265.7,3471 1265.7,3497 1271.7,3497 1271.7,3494.3 1278.9,3497.3 
			1278.9,3480.3 		"/>
	</g>
	<path class="st2" d="M1313.7,3512.7h-24.4c-0.8,0-1.5-0.7-1.5-1.5v-7.9c0-0.8,0.7-1.5,1.5-1.5h24.4c0.8,0,1.5,0.7,1.5,1.5v7.9
		C1315.2,3512,1314.5,3512.7,1313.7,3512.7z"/>
	<text transform="matrix(1 0 0 1 1371.5525 3390.4241)" class="st4 st5" style="font-size:18px;">+</text>
	<text transform="matrix(1 0 0 1 1415.7749 3430)" class="st4 st5" style="font-size:12px;">+</text>
	<text transform="matrix(1 0 0 1 1359 3437.5696)" class="st4 st5" style="font-size:12px;">+</text>
	<polygon class="st3" points="1356,3471.7 1375.7,3465.3 1375.7,3512.4 1356,3505.2 	"/>
</g>
<path class="st0" d="M446.7,3812.3c6.9,12.8,10.9,27.4,10.9,43c0,49.9-40.4,90.3-90.3,90.3s-90.3-40.4-90.3-90.3
	s40.4-90.3,90.3-90.3c24.7,0,47,9.9,63.3,25.9"/>
<path class="st0" d="M156.6,66c6.2,11.5,9.7,24.6,9.7,38.6c0,44.7-36.3,81-81,81s-81-36.3-81-81s36.3-81,81-81
	c22.1,0,42.2,8.9,56.8,23.3"/>
<path class="st0" d="M146.6,51.5c1.5,1.8,3,3.6,4.4,5.5"/>
<text transform="matrix(1 0 0 1 122.4053 62.5059)" class="st4 st5 st6">+</text>
<text transform="matrix(1 0 0 1 146.6035 31.1133)" class="st4 st5 st7">+</text>
<text transform="matrix(1 0 0 1 171.5811 46.0688)" class="st4 st5 st7">+</text>
<path class="st8" d="M83.4,63.6"/>
<g>
	<path class="st1" d="M86.3,114.3h-1.8c-10.1,0-18.2-8.2-18.2-18.2v-27c0-10.1,8.2-18.2,18.2-18.2h1.8c10.1,0,18.2,8.2,18.2,18.2v27
		C104.6,106.2,96.4,114.3,86.3,114.3z"/>
	<path class="st2" d="M88.8,114.3c9,0,16.4-7.3,16.4-16.4V67.2c0-9-7.3-16.4-16.4-16.4h-5.6c0,0,10.5,2.8,11,15.4v33.5
		C94.2,105.1,92.2,110.3,88.8,114.3L88.8,114.3z"/>
	<path class="st9" d="M113.5,99.6c0,15.5-12.6,28.1-28.1,28.1s-28.1-12.6-28.1-28.1"/>
	<line class="st8" x1="85.4" y1="127.7" x2="85.4" y2="152.6"/>
</g>
<line class="st9" x1="74.9" y1="152.6" x2="97" y2="152.6"/>
</svg>
